ffmpeg version 2025-07-01-git-11d1b71c31-essentials_build-www.gyan.dev Copyright (c) 2000-2025 the FFmpeg developers
  built with gcc 15.1.0 (Rev4, Built by MSYS2 project)
  configuration: --enable-gpl --enable-version3 --enable-static --disable-w32threads --disable-autodetect --enable-fontconfig --enable-iconv --enable-gnutls --enable-libxml2 --enable-gmp --enable-bzlib --enable-lzma --enable-zlib --enable-libsrt --enable-libssh --enable-libzmq --enable-avisynth --enable-sdl2 --enable-libwebp --enable-libx264 --enable-libx265 --enable-libxvid --enable-libaom --enable-libopenjpeg --enable-libvpx --enable-mediafoundation --enable-libass --enable-libfreetype --enable-libfribidi --enable-libharfbuzz --enable-libvidstab --enable-libvmaf --enable-libzimg --enable-amf --enable-cuda-llvm --enable-cuvid --enable-dxva2 --enable-d3d11va --enable-d3d12va --enable-ffnvcodec --enable-libvpl --enable-nvdec --enable-nvenc --enable-vaapi --enable-openal --enable-libgme --enable-libopenmpt --enable-libopencore-amrwb --enable-libmp3lame --enable-libtheora --enable-libvo-amrwbenc --enable-libgsm --enable-libopencore-amrnb --enable-libopus --enable-libspeex --enable-libvorbis --enable-librubberband
  libavutil      60.  4.101 / 60.  4.101
  libavcodec     62.  4.103 / 62.  4.103
  libavformat    62.  1.101 / 62.  1.101
  libavdevice    62.  0.100 / 62.  0.100
  libavfilter    11.  0.100 / 11.  0.100
  libswscale      9.  0.100 /  9.  0.100
  libswresample   6.  0.100 /  6.  0.100
Input #0, rawvideo, from 'fd:':
  Duration: N/A, start: 0.000000, bitrate: 3981312 kb/s
  Stream #0:0: Video: rawvideo (BGRA / 0x41524742), bgra, 1920x1080, 3981312 kb/s, 60 tbr, 60 tbn
Stream mapping:
  Stream #0:0 -> #0:0 (rawvideo (native) -> h264 (libx264))
[libx264 @ 00000147571fbf80] using cpu capabilities: MMX2 SSE2Fast SSSE3 SSE4.2 AVX FMA3 BMI2 AVX2 AVX512
[libx264 @ 00000147571fbf80] profile High, level 4.2, 4:2:0, 8-bit
[libx264 @ 00000147571fbf80] 264 - core 165 r3222 b35605a - H.264/MPEG-4 AVC codec - Copyleft 2003-2025 - http://www.videolan.org/x264.html - options: cabac=1 ref=3 deblock=1:0:0 analyse=0x3:0x113 me=hex subme=7 psy=1 psy_rd=1.00:0.00 mixed_ref=1 me_range=16 chroma_me=1 trellis=1 8x8dct=1 cqm=0 deadzone=21,11 fast_pskip=1 chroma_qp_offset=-2 threads=34 lookahead_threads=5 sliced_threads=0 nr=0 decimate=1 interlaced=0 bluray_compat=0 constrained_intra=0 bframes=3 b_pyramid=2 b_adapt=1 b_bias=0 direct=1 weightb=1 open_gop=0 weightp=2 keyint=250 keyint_min=25 scenecut=40 intra_refresh=0 rc_lookahead=40 rc=abr mbtree=1 bitrate=20971 ratetol=1.0 qcomp=0.60 qpmin=0 qpmax=69 qpstep=4 ip_ratio=1.40 aq=1:1.00
Output #0, mp4, to '2025_07_07_01_25_05.mp4':
  Metadata:
    encoder         : Lavf62.1.101
  Stream #0:0: Video: h264 (avc1 / 0x31637661), yuv420p(tv, progressive), 1920x1080, q=2-31, 20971 kb/s, 60 fps, 15360 tbn
    Metadata:
      encoder         : Lavc62.4.103 libx264
    Side data:
      cpb: bitrate max/min/avg: 0/0/20971000 buffer size: 0 vbv_delay: N/A
frame=    0 fps=0.0 q=0.0 size=       0KiB time=N/A bitrate=N/A speed=N/A elapsed=0:00:00.51    frame=    0 fps=0.0 q=0.0 size=       0KiB time=N/A bitrate=N/A speed=N/A elapsed=0:00:01.02    frame=    0 fps=0.0 q=0.0 size=       0KiB time=N/A bitrate=N/A speed=N/A elapsed=0:00:01.54    frame=   20 fps=9.7 q=27.0 size=    1024KiB time=00:00:00.30 bitrate=27963.3kbits/s speed=0.146x elapsed=0:00:02.05    frame=   45 fps= 17 q=23.0 size=    1792KiB time=00:00:00.71 bitrate=20484.3kbits/s speed=0.278x elapsed=0:00:02.57    frame=   70 fps= 23 q=21.0 size=    2304KiB time=00:00:01.13 bitrate=16654.2kbits/s speed=0.367x elapsed=0:00:03.08    frame=   94 fps= 26 q=21.0 size=    3328KiB time=00:00:01.53 bitrate=17780.5kbits/s speed=0.426x elapsed=0:00:03.59    frame=  117 fps= 28 q=22.0 size=    4608KiB time=00:00:01.91 bitrate=19695.2kbits/s speed=0.465x elapsed=0:00:04.12    frame=  140 fps= 30 q=22.0 size=    5632KiB time=00:00:02.30 bitrate=20059.9kbits/s speed=0.497x elapsed=0:00:04.63    frame=  163 fps= 32 q=22.0 size=    6912KiB time=00:00:02.68 bitrate=21101.9kbits/s speed=0.521x elapsed=0:00:05.15    frame=  187 fps= 33 q=23.0 size=    7936KiB time=00:00:03.08 bitrate=21085.0kbits/s speed=0.544x elapsed=0:00:05.66    frame=  212 fps= 34 q=23.0 size=    8960KiB time=00:00:03.50 bitrate=20971.6kbits/s speed=0.566x elapsed=0:00:06.18    frame=  236 fps= 35 q=23.0 size=    9984KiB time=00:00:03.90 bitrate=20971.6kbits/s speed=0.583x elapsed=0:00:06.69    frame=  261 fps= 36 q=23.0 size=   11520KiB time=00:00:04.31 bitrate=21862.3kbits/s speed=0.598x elapsed=0:00:07.21    frame=  285 fps= 37 q=23.0 size=   12288KiB time=00:00:04.71 bitrate=21342.1kbits/s speed=0.61x elapsed=0:00:07.72    frame=  310 fps= 38 q=23.0 size=   13312KiB time=00:00:05.13 bitrate=21244.0kbits/s speed=0.622x elapsed=0:00:08.25    frame=  335 fps= 38 q=23.0 size=   14336KiB time=00:00:05.55 bitrate=21160.5kbits/s speed=0.633x elapsed=0:00:08.76    frame=  359 fps= 39 q=23.0 size=   15360KiB time=00:00:05.95 bitrate=21147.8kbits/s speed=0.641x elapsed=0:00:09.27    frame=  385 fps= 39 q=23.0 size=   16384KiB time=00:00:06.38 bitrate=21026.3kbits/s speed=0.651x elapsed=0:00:09.80    frame=  410 fps= 40 q=22.0 size=   17152KiB time=00:00:06.80 bitrate=20663.2kbits/s speed=0.659x elapsed=0:00:10.32    frame=  435 fps= 40 q=22.0 size=   17920KiB time=00:00:07.21 bitrate=20341.9kbits/s speed=0.666x elapsed=0:00:10.83    frame=  460 fps= 40 q=22.0 size=   18688KiB time=00:00:07.63 bitrate=20055.8kbits/s speed=0.672x elapsed=0:00:11.35    frame=  484 fps= 41 q=22.0 size=   19712KiB time=00:00:08.03 bitrate=20101.4kbits/s speed=0.677x elapsed=0:00:11.86    frame=  509 fps= 41 q=22.0 size=   20992KiB time=00:00:08.45 bitrate=20351.1kbits/s speed=0.682x elapsed=0:00:12.39    frame=  534 fps= 41 q=22.0 size=   22272KiB time=00:00:08.86 bitrate=20577.4kbits/s speed=0.687x elapsed=0:00:12.90    frame=  558 fps= 42 q=22.0 size=   23552KiB time=00:00:09.26 bitrate=20820.7kbits/s speed=0.691x elapsed=0:00:13.41    frame=  583 fps= 42 q=23.0 size=   24832KiB time=00:00:09.68 bitrate=21007.7kbits/s speed=0.695x elapsed=0:00:13.94    frame=  607 fps= 42 q=23.0 size=   26112KiB time=00:00:10.08 bitrate=21214.2kbits/s speed=0.698x elapsed=0:00:14.44    frame=  631 fps= 42 q=23.0 size=   27392KiB time=00:00:10.48 bitrate=21405.0kbits/s speed= 0.7x elapsed=0:00:14.96    frame=  653 fps= 42 q=24.0 size=   28416KiB time=00:00:10.85 bitrate=21454.8kbits/s speed=0.701x elapsed=0:00:15.47    frame=  677 fps= 42 q=24.0 size=   29952KiB time=00:00:11.25 bitrate=21810.4kbits/s speed=0.703x elapsed=0:00:15.99    frame=  700 fps= 42 q=25.0 size=   32256KiB time=00:00:11.63 bitrate=22714.2kbits/s speed=0.705x elapsed=0:00:16.50    frame=  724 fps= 43 q=26.0 size=   34560KiB time=00:00:12.03 bitrate=23527.6kbits/s speed=0.707x elapsed=0:00:17.03    frame=  747 fps= 43 q=27.0 size=   36608KiB time=00:00:12.41 bitrate=24152.5kbits/s speed=0.708x elapsed=0:00:17.54    frame=  771 fps= 43 q=27.0 size=   38912KiB time=00:00:12.81 bitrate=24871.3kbits/s speed=0.71x elapsed=0:00:18.05    frame=  794 fps= 43 q=27.0 size=   40448KiB time=00:00:13.20 bitrate=25102.3kbits/s speed=0.711x elapsed=0:00:18.57    frame=  816 fps= 43 q=27.0 size=   41216KiB time=00:00:13.56 bitrate=24887.6kbits/s speed=0.711x elapsed=0:00:19.08    frame=  839 fps= 43 q=27.0 size=   41728KiB time=00:00:13.95 bitrate=24504.4kbits/s speed=0.711x elapsed=0:00:19.61    frame=  860 fps= 43 q=27.0 size=   42496KiB time=00:00:14.30 bitrate=24344.6kbits/s speed=0.711x elapsed=0:00:20.12    frame=  882 fps= 43 q=27.0 size=   43008KiB time=00:00:14.66 bitrate=24021.9kbits/s speed=0.711x elapsed=0:00:20.63    frame=  905 fps= 43 q=27.0 size=   43776KiB time=00:00:15.05 bitrate=23828.1kbits/s speed=0.711x elapsed=0:00:21.15    frame=  927 fps= 43 q=27.0 size=   44544KiB time=00:00:15.41 bitrate=23669.5kbits/s speed=0.712x elapsed=0:00:21.66    frame=  949 fps= 43 q=26.0 size=   45312KiB time=00:00:15.78 bitrate=23518.2kbits/s speed=0.712x elapsed=0:00:22.17    frame=  972 fps= 43 q=26.0 size=   45824KiB time=00:00:16.16 bitrate=23220.0kbits/s speed=0.712x elapsed=0:00:22.70    frame=  994 fps= 43 q=26.0 size=   46592KiB time=00:00:16.53 bitrate=23085.6kbits/s speed=0.712x elapsed=0:00:23.21    frame= 1016 fps= 43 q=26.0 size=   47616KiB time=00:00:16.90 bitrate=23081.1kbits/s speed=0.712x elapsed=0:00:23.73    frame= 1039 fps= 43 q=26.0 size=   48384KiB time=00:00:17.28 bitrate=22933.2kbits/s speed=0.713x elapsed=0:00:24.25    frame= 1061 fps= 43 q=26.0 size=   48896KiB time=00:00:17.65 bitrate=22694.4kbits/s speed=0.713x elapsed=0:00:24.76    frame= 1083 fps= 43 q=26.0 size=   49664KiB time=00:00:18.01 bitrate=22581.8kbits/s speed=0.713x elapsed=0:00:25.28    frame= 1106 fps= 43 q=26.0 size=   50432KiB time=00:00:18.40 bitrate=22453.2kbits/s speed=0.713x elapsed=0:00:25.79    frame= 1128 fps= 43 q=26.0 size=   51200KiB time=00:00:18.76 bitrate=22349.8kbits/s speed=0.714x elapsed=0:00:26.30    frame= 1150 fps= 43 q=25.0 size=   51712KiB time=00:00:19.13 bitrate=22140.7kbits/s speed=0.713x elapsed=0:00:26.82    frame= 1173 fps= 43 q=25.0 size=   52480KiB time=00:00:19.51 bitrate=22028.2kbits/s speed=0.714x elapsed=0:00:27.34    frame= 1195 fps= 43 q=25.0 size=   53248KiB time=00:00:19.88 bitrate=21938.4kbits/s speed=0.714x elapsed=0:00:27.85    frame= 1218 fps= 43 q=22.0 size=   53760KiB time=00:00:20.26 bitrate=21730.4kbits/s speed=0.714x elapsed=0:00:28.36    frame= 1240 fps= 43 q=25.0 size=   54528KiB time=00:00:20.63 bitrate=21649.1kbits/s speed=0.714x elapsed=0:00:28.88    frame= 1262 fps= 43 q=25.0 size=   55808KiB time=00:00:21.00 bitrate=21770.5kbits/s speed=0.714x elapsed=0:00:29.39    frame= 1285 fps= 43 q=25.0 size=   56320KiB time=00:00:21.38 bitrate=21576.3kbits/s speed=0.715x elapsed=0:00:29.91    frame= 1307 fps= 43 q=25.0 size=   57088KiB time=00:00:21.75 bitrate=21501.9kbits/s speed=0.715x elapsed=0:00:30.42    frame= 1329 fps= 43 q=25.0 size=   57856KiB time=00:00:22.11 bitrate=21429.8kbits/s speed=0.715x elapsed=0:00:30.94    frame= 1351 fps= 43 q=25.0 size=   58880KiB time=00:00:22.48 bitrate=21453.5kbits/s speed=0.715x elapsed=0:00:31.46    frame= 1374 fps= 43 q=25.0 size=   59904KiB time=00:00:22.86 bitrate=21460.7kbits/s speed=0.715x elapsed=0:00:31.97    frame= 1396 fps= 43 q=25.0 size=   60672KiB time=00:00:23.23 bitrate=21392.8kbits/s speed=0.715x elapsed=0:00:32.48    frame= 1419 fps= 43 q=25.0 size=   61696KiB time=00:00:23.61 bitrate=21400.7kbits/s speed=0.715x elapsed=0:00:33.01    frame= 1442 fps= 43 q=25.0 size=   62208KiB time=00:00:24.00 bitrate=21233.7kbits/s speed=0.716x elapsed=0:00:33.53    frame= 1464 fps= 43 q=25.0 size=   62976KiB time=00:00:24.36 bitrate=21172.4kbits/s speed=0.716x elapsed=0:00:34.04    frame= 1486 fps= 43 q=25.0 size=   63744KiB time=00:00:24.73 bitrate=21112.9kbits/s speed=0.716x elapsed=0:00:34.55    frame= 1508 fps= 43 q=25.0 size=   65024KiB time=00:00:25.10 bitrate=21222.2kbits/s speed=0.716x elapsed=0:00:35.07    frame= 1531 fps= 43 q=25.0 size=   66048KiB time=00:00:25.48 bitrate=21232.1kbits/s speed=0.716x elapsed=0:00:35.58    frame= 1553 fps= 43 q=25.0 size=   66816KiB time=00:00:25.85 bitrate=21174.4kbits/s speed=0.716x elapsed=0:00:36.09    frame= 1575 fps= 43 q=25.0 size=   67840KiB time=00:00:26.21 bitrate=21198.2kbits/s speed=0.716x elapsed=0:00:36.62    frame= 1594 fps= 43 q=24.0 size=   68352KiB time=00:00:26.53 bitrate=21103.3kbits/s speed=0.715x elapsed=0:00:37.13    frame= 1594 fps= 42 q=24.0 size=   68352KiB time=00:00:26.53 bitrate=21103.3kbits/s speed=0.705x elapsed=0:00:37.65    frame= 1594 fps= 42 q=24.0 size=   68352KiB time=00:00:26.53 bitrate=21103.3kbits/s speed=0.695x elapsed=0:00:38.16    frame= 1629 fps= 42 q=24.0 size=   69888KiB time=00:00:27.11 bitrate=21113.3kbits/s speed=0.701x elapsed=0:00:38.68    [out#0/mp4 @ 00000147571e42c0] video:71526KiB audio:0KiB subtitle:0KiB other streams:0KiB global headers:0KiB muxing overhead: 0.028359%
frame= 1674 fps= 43 q=-1.0 Lsize=   71547KiB time=00:00:27.86 bitrate=21032.7kbits/s speed=0.718x elapsed=0:00:38.81    
[libx264 @ 00000147571fbf80] frame I:7     Avg QP:15.36  size:495066
[libx264 @ 00000147571fbf80] frame P:523   Avg QP:18.48  size:110648
[libx264 @ 00000147571fbf80] frame B:1144  Avg QP:23.07  size: 10409
[libx264 @ 00000147571fbf80] consecutive B-frames:  8.5%  0.7%  1.4% 89.4%
[libx264 @ 00000147571fbf80] mb I  I16..4:  3.2% 27.7% 69.1%
[libx264 @ 00000147571fbf80] mb P  I16..4:  0.1%  0.7%  1.1%  P16..4: 33.4% 31.3% 24.8%  0.0%  0.0%    skip: 8.6%
[libx264 @ 00000147571fbf80] mb B  I16..4:  0.0%  0.0%  0.1%  B16..8: 41.3%  3.9%  1.2%  direct: 1.7%  skip:51.9%  L0:41.0% L1:52.2% BI: 6.7%
[libx264 @ 00000147571fbf80] final ratefactor: 15.72
[libx264 @ 00000147571fbf80] 8x8 transform intra:33.7% inter:50.9%
[libx264 @ 00000147571fbf80] coded y,uvDC,uvAC intra: 85.5% 80.2% 54.1% inter: 20.0% 11.4% 2.3%
[libx264 @ 00000147571fbf80] i16 v,h,dc,p: 21% 36% 13% 31%
[libx264 @ 00000147571fbf80] i8 v,h,dc,ddl,ddr,vr,hd,vl,hu: 15% 20% 20%  6%  7%  5% 12%  6% 10%
[libx264 @ 00000147571fbf80] i4 v,h,dc,ddl,ddr,vr,hd,vl,hu: 22% 22% 14%  6%  7%  5% 11%  5%  8%
[libx264 @ 00000147571fbf80] i8c dc,h,v,p: 52% 24% 17%  6%
[libx264 @ 00000147571fbf80] Weighted P-Frames: Y:1.3% UV:0.0%
[libx264 @ 00000147571fbf80] ref P L0: 59.4% 18.5% 12.4%  9.7%  0.0%
[libx264 @ 00000147571fbf80] ref B L0: 86.0%  9.0%  5.0%
[libx264 @ 00000147571fbf80] ref B L1: 92.9%  7.1%
[libx264 @ 00000147571fbf80] kb/s:21001.40
